<svg xmlns="http://www.w3.org/2000/svg" width="41" height="19" viewBox="0 0 41 18.415"><linearGradient id="A" gradientUnits="userSpaceOnUse" x1="20.5" y1="0" x2="20.5" y2="18.415"><stop offset="0" stop-color="#C8AA31"/><stop offset="1" stop-color="#ECD939"/></linearGradient><path d="M41 17.11c0 .72-.584 1.304-1.304 1.304H1.304C.583 18.415 0 17.83 0 17.11V1.304C0 .584.583 0 1.304 0h38.392C40.416 0 41 .584 41 1.304V17.11z" fill="url(#A)"/><path d="M7.786 15.452H4.688V2.812h3.097v12.64zm11.485 0h-2.643V8.357l-1.28 7.095h-1.913l-1.312-7.095v7.095h-2.8V2.812h3.986l1.036 5.963.718-5.963h4.197v12.64zm1.635 0V2.812h3.465c2.063 0 2.564.204 3.154.612s.884 1.036.884 1.882v7.65c0 .788-.275 1.4-.827 1.838s-1.213.657-3.193.657h-3.483zm4.178-2.652V5.388c0-.616-.668-.56-1.197-.56v8.5c.53 0 1.197.08 1.197-.52zm7.287 1.993c-.217-.094-.41.66-.41.66h-2.558V2.812h3.168v2.894c.32-.36 1.21-.917 2.073-.877s1.992.678 1.913 1.738v7.35c0 .517-.228.925-.68 1.225-.363.158-.674.208-1.432.208s-1.856-.464-2.072-.558zm1.07-1.524l.002-6.367c0-.31-.144-.467-.432-.467s-.44.15-.44.45l-.002 6.384c0 .312.147.528.44.528.288 0 .432-.217.432-.528z" fill="#231F1E"/></svg>